<!--?xml version="1.0" encoding="utf-8"?-->
<!-- Generator: Adobe Illustrator 22.1.0, SVG Export Plug-In . SVG Version: 6.00 Build 0)  -->
<svg version="1.1" id="_x30_" xmlns="http://www.w3.org/2000/svg" xmlns:xlink="http://www.w3.org/1999/xlink" x="0px" y="0px" viewBox="-100 0 727 600" style="width: 160px; height: 182px;" xml:space="preserve">
<style type="text/css">
	.st0{fill:#040000;}
</style>
<g>
	<path class="st0" d="M246.68,552.5c6.8-0.745,13.611-1.52,20.438-1.844c7.677-0.366,15.397,0.07,23.065-0.402
		c14.865-0.918,29.691-2.483,44.561-3.301c14.576-0.803,29.183-1.135,43.781-1.392c3.717-0.066,7.576,0.509,11.151,1.544
		c5.272,1.526,10.562,2.583,16.006,2.234c4.751-0.304,8.981,0.991,13.278,2.758c1.994,0.82,4.401,0.905,6.613,0.87
		c5.204-0.083,8.827-4.145,13.478-5.684c7.157-2.368,9.708-14.086,8.684-20.121c-1.03-6.069-4.935-10.4-8.02-15.224
		c-2.95-4.614-6.563-8.805-9.459-13.448c-2.395-3.84-5.454-6.779-9.003-9.496c-3.476-2.66-6.733-5.691-9.704-8.912
		c-3.993-4.331-9.271-7.594-11.264-13.501c-4.598,1.393-5.36,1.958-7.677,5.138c-0.743,1.019-1.552,2.096-2.573,2.789
		c-5.534,3.76-11.061,7.543-16.768,11.027c-2.178,1.33-4.767,2.382-7.277,2.701c-6.806,0.864-13.667,1.303-20.512,1.841
		c-4.255,0.335-8.527,0.451-12.778,0.823c-11.603,1.016-23.195,2.155-34.799,3.16c-4.912,0.426-9.839,0.668-14.763,0.935
		c-1.749,0.095-3.509,0.015-5.921,0.015c0.811-1.408,1.182-2.283,1.752-3.002c2.742-3.462,3.125-7.423,2.6-11.605
		c-0.264-2.115-0.617-4.229-0.723-6.353c-0.318-6.391-0.669-12.765-2.623-18.932c-0.899-2.839-0.918-5.693,0.084-8.531
		c1.665-0.518,3.494-0.622,4.7-1.543c4.501-3.438,9.963-3.733,15.001-3.761c8.798-0.05,17.07-2.413,25.532-4.008
		c5.006-0.944,9.889-1.817,14.994,0.14c4.482,1.718,9.214,2.913,13.935,3.84c5.392,1.059,10.904-0.289,11.718-3.731
		c0.898-3.795,3.318-4.819,6.154-6.118c2.901-1.328,3.567-4.701,1.68-7.305c-1.331-1.838-2.922-3.588-3.8-5.634
		c-3.477-8.102-10.507-12.183-18.08-14.713c-4.336-1.448-8.571-3.129-12.811-4.781c-2.731-1.064-5.08-3.342-7.856-4.002
		c-3.688-0.876-5.668-2.896-6.558-6.774c-3.431,1.234-6.501,2.336-9.714,3.492c-0.057,0.665-0.131,1.525-0.159,1.845
		c-1.559-0.094-3.237-0.703-3.962-0.122c-1.142,0.916-1.641,2.632-2.318,3.84c-2.45,0.146-5.209-0.487-6.843,0.588
		c-2.695,1.774-5.507,1.846-8.369,2.304c-10.357,1.661-20.721,3.278-31.063,5.025c-2.086,0.353-4.054,1.369-6.135,1.797
		c-8.816,1.814-17.625,3.686-26.492,5.219c-7.91,1.368-15.893,2.317-23.843,3.454c-12.663,1.809-25.296,3.885-37.999,5.337
		c-8.477,0.969-16.243,3.361-23.567,7.743c-2.782,1.665-5.811,3.336-9.145,3.544c0.983,2.014,2.284,3.979,2.932,6.14
		c1.913,6.396,6.329,11.03,10.664,15.722c1.526,1.652,3.264,3.179,5.124,4.439c7.412,5.017,14.839,10.022,22.406,14.798
		c4.525,2.855,9.174,5.615,14.051,7.778c3.392,1.505,7.258,1.96,10.928,2.812c1.902,0.441,4.231,1.581,5.688,0.916
		c4.21-1.92,9.141-3.252,10.814-8.544c0.593-1.873,1.249-3.76,2.164-5.486c0.742-1.399,1.682-2.911,2.945-3.77
		c2.825-1.921,5.868-3.535,8.892-5.143c2.574-1.368,5.271-2.445,9-2.309c-0.769,2.246-1.22,4.108-2.022,5.805
		c-2.383,5.046-5.402,9.854-7.236,15.083c-1.94,5.529-2.922,11.412-4.086,17.188c-0.52,2.577-1.467,3.97-4.298,4.435
		c-9.215,1.51-18.373,3.366-27.568,5.01c-5.49,0.981-11.008,1.814-16.513,2.714c-9.544,1.56-19.123,2.932-28.621,4.738
		c-7.556,1.437-14.947,3.783-22.525,5.042c-10.2,1.695-20.319,3.718-30.292,6.377c-2.725,0.726-5.271,2.464-7.626,4.125
		c-1.688,1.19-1.863,6.146-0.586,8.017c2.928,4.291,5.953,8.517,8.881,12.808c1.315,1.926,2.152,4.309,3.799,5.853
		c4.051,3.8,8.378,7.322,12.726,10.789c3.497,2.789,6.516,6.67,11.855,5.885c0.551-0.082,1.253,0.405,1.79,0.768
		c2.296,1.557,5.151,2.153,7.359,3.472c4.165,2.488,8.641,1.997,12.818,2.242c6.788,0.398,12.145-3.124,15.433-9.312
		c1.467-2.759,3.606-4.515,6.733-5.278c7.771-1.898,15.486-4.027,23.249-5.959c3.344-0.832,6.723-1.678,10.138-2.047
		c9.924-1.075,19.882-1.839,29.812-2.872C236.999,553.994,241.816,553.033,246.68,552.5z" style="fill: rgb(0, 0, 0);"></path>
	<path class="st0" d="M25.418,213.647c0.849,6.537,1.566,13.102,2.014,19.679c0.627,9.208-0.79,18.244-2.821,27.212
		c-1.169,5.155-1.946,10.8,0.619,15.355c4.631,8.225,10.329,15.847,15.593,23.714c0.867,1.296,1.629,2.715,2.716,3.8
		c4.228,4.222,8.289,8.686,12.959,12.364c3.216,2.533,6.63,4.647,8.904,8.207c0.779,1.218,2.075,2.307,3.383,2.952
		c8.325,4.11,15.862,9.408,23.292,14.91c1.159,0.858,2.836,1.383,4.285,1.409c3.529,0.063,6.954-0.455,9.618-3.263
		c3.481-3.668,8.663-5.622,9.902-11.528c1.026-4.894,3.247-9.53,4.801-14.323c1.667-5.145,3.45-10.14,2.311-15.895
		c-0.894-4.518-1.117-9.458-0.272-13.954c0.898-4.779,0.872-9.268-0.461-13.766c-0.786-2.651-0.339-4.811,0.718-7.272
		c3.346-7.792,7.602-15.474,4.587-23.854c1.663-1.558,3.036-2.551,4.032-3.837c2.08-2.689,4.538-4.665,7.83-5.733
		c6.829-2.215,13.557-4.752,20.416-6.867c5.732-1.767,11.583-3.158,17.398-4.649c5.065-1.298,10.102-2.819,15.244-3.67
		c7.064-1.17,14.241-1.643,21.326-2.701c10.179-1.519,20.336-3.201,30.472-4.986c10.883-1.918,21.716-4.119,32.597-6.046
		c14.886-2.636,29.871-4.768,44.674-7.796c12.229-2.501,24.514-3.085,36.863-2.707c10.633,0.325,21.246,1.348,32.348,2.096
		c-0.644,1.726-1.02,3.653-1.997,5.203c-5.243,8.316-5.526,19.06-12.912,26.32c-0.374,0.367-0.335,1.119-0.608,1.628
		c-5.971,11.127-11.944,22.252-17.95,33.36c-2.05,3.79-4.188,7.532-6.285,11.296c1.62,0.274,2.466-0.039,3.141-0.57
		c2.581-2.03,5.045-4.211,7.666-6.185c4.598-3.463,9.186-6.953,13.954-10.171c4.191-2.827,8.443-5.689,13.01-7.798
		c3.449-1.593,7.508-1.808,11.163-3.032c3.502-1.172,7.679,1.625,10.686-1.951c2.383,2.422,4.56,0.03,5.803-1.028
		c4.127-3.508,9.237-3.638,13.987-4.605c3.403-0.693,6.91-0.425,9.859-2.831c0.774-0.632,2.441-1.027,3.237-0.624
		c3.23,1.637,6.044,0.275,9.01-0.642c4.631-1.433,9.259-2.932,13.98-3.999c2.396-0.541,5.519-1.135,7.397-0.077
		c5.332,3.004,9.848,2.191,15.413,0.2c6.814-2.439,11.292-7.126,15.716-12.096c1.372-1.54,2.019-4.28,1.958-6.442
		c-0.197-7.025-1.729-13.842-4.402-20.38c-1.475-3.608-2.842-7.183-6.249-9.627c-1.527-1.095-2.803-2.803-3.672-4.5
		c-2.715-5.303-7.551-8.478-12.196-11.456c-5.999-3.847-9.776-8.742-11.143-16.062c-0.792-0.374-1.332-0.583-1.826-0.87
		c-3.29-1.912-7.496-3.137-9.621-5.939c-2.775-3.656-6.07-4.433-9.559-3.625c-9.82,2.272-19.695,0.594-29.522,0.911
		c-4.672,0.15-9.206,0.268-13.725,1.479c-7.672,2.057-15.495,3.625-23.041,6.059c-15.073,4.862-30.784,6.432-46.185,9.587
		c-2.853,0.584-5.676,1.336-8.545,1.818c-11.487,1.93-23.069,3.392-34.461,5.762c-15.949,3.318-31.824,7.046-47.613,11.063
		c-12.234,3.112-24.309,6.867-36.413,10.478c-5.199,1.551-10.278,3.497-15.433,5.2c-11.616,3.839-23.333,7.391-34.843,11.526
		c-10.771,3.87-21.378,8.17-32.691,10.294c-0.675,0.127-1.732,0.395-1.878,0.838c-1.477,4.493-5.489,4.012-8.04,4.745
		c-5.059-4.787-9.148-9.864-14.334-13.275c-7.573-4.981-13.56-11.078-17.435-19.108c-3.38-7.007-9.124-10.809-15.99-13.491
		c-2.306-0.9-4.576-1.891-7.13-2.951c-0.528,0.441-1.296,1.276-2.234,1.811c-1.002,0.57-2.135,1.067-3.263,1.231
		c-6.452,0.942-11.881,3.16-13.04,10.13c-2.883,0.549-5.132,1.18-7.417,1.376c-8.698,0.75-12.871,4.853-13.412,13.374
		c-0.045,0.719-0.114,1.504-0.433,2.124c-1.526,2.966-1.803,5.474-0.015,7.26C23.899,206.897,24.968,210.179,25.418,213.647z" style="fill: rgb(0, 0, 0);"></path>
	<path class="st0" d="M196.059,113.597c-3.09,5.807-6.046,11.647-8.25,18.914c2.375-0.339,4.095-0.29,5.59-0.847
		c6.51-2.422,12.926-5.096,19.435-7.523c3.388-1.263,6.662-2.889,10.635-1.452c2.077,0.751,4.63,0.2,6.969,0.207
		c2.487,0.007,5.02-0.335,7.452,0.024c8.241,1.22,16.475,2.54,24.646,4.15c2.139,0.421,4.531,1.603,5.936,3.202
		c1.924,2.187,4.222,2.614,6.699,2.996c1.5,0.231,3.08,0.03,4.548,0.361c8.961,2.029,17.307,1.442,24.413-5.219
		c0.832-0.779,2.079-1.101,2.975-1.83c4.655-3.787,9.549-7.323,10.883-13.834c1.768-8.631,0.871-17.236-1.749-25.305
		c-1.795-5.529-5.238-11.075-9.394-15.128c-3.931-3.833-7.611-7.667-10.734-12.152c-3.488-5.007-8.099-8.854-13.273-12.05
		c-2.441-1.507-4.694-3.994-7.298-4.423c-5.694-0.938-10.256-3.423-14.278-7.328c-0.827-0.804-1.836-1.466-2.856-2.017
		c-5.466-2.95-10.896-5.98-16.471-8.71c-3.829-1.874-7.755-3.766-11.85-4.837c-8.75-2.289-15.037,0.378-19.954,7.76
		c-1.701,2.555-3.78,4.386-7.136,4.339c-1.074-0.016-2.158,0.617-2.625,0.762c-0.946,2.665-1.192,5.148-2.51,6.747
		c-4.473,5.422-4.736,5.718-4.967,13.799c-0.025,0.878-0.686,1.748-1.094,2.601c-0.731,1.527-1.494,3.037-1.778,3.612
		c1.521,3.117,2.588,5.306,3.79,7.772c1.595,0.784,3.549,1.677,5.441,2.686c10.71,5.711,13.458,6.575,8.16,20.409
		C204.444,99.034,199.982,106.225,196.059,113.597z" style="fill: rgb(0, 0, 0);"></path>
	<path class="st0" d="M304.536,235.398c-3.698-2.411-7.397-4.821-11.113-7.205c-6.047-3.877-12.013-7.889-18.191-11.546
		c-5.097-3.017-5.155-2.763-9.438,1.058c-1.402,1.251-3.18,2.965-4.775,2.953c-4.842-0.034-6.238,3.41-7.818,5.962
		c1.242,4.443,3.223,8.263,3.211,12.076c-0.045,14.19-0.752,28.376-1.189,42.565c-0.023,0.768,0.156,1.541,0.225,2.313
		c0.567,6.383,1.13,12.766,1.696,19.15c0.776,8.77,2.855,17.241,6.291,25.324c2.04,4.8,4.217,9.61,6.954,14.03
		c3.97,6.41,7.837,12.982,14.703,17.032c7.786,4.592,16.232,7.29,25.023,8.721c8.259,1.344,15.975,0.222,23.249-5.015
		c3.704-2.667,7.82-5.656,12.993-6.155c1.772-0.171,3.287-2.398,5.046-3.482c2.263-1.394,4.52-3.095,7.018-3.74
		c3.917-1.011,8.033-1.249,12.048-1.813c0.957-3.665,0.957-3.666,5.144-6.289c7.695-4.825,10.309-10.915,8.199-19.587
		c1.467-0.922,3.013-1.895,4.722-2.97c-1.482-3.571-4.42-2.508-6.537-2.259c-9.823,1.158-19.64,2.455-29.403,4.041
		c-12.349,2.006-24.41-0.574-36.543-1.918c-3.699-0.409-6.904-2.727-7.702-6.344c-1.655-7.495-7.029-14.754-2.135-22.897
		c0.274-0.456,0.142-1.149,0.227-1.727c1.195-8.067,2.328-16.144,3.642-24.19c0.297-1.82,0.813-3.893,1.959-5.217
		c1.656-1.91,1.707-3.795,1.305-5.948c-0.283-1.516-1.041-3.067-0.874-4.521C313.2,241.422,309.036,238.334,304.536,235.398z" style="fill: rgb(0, 0, 0);"></path>
	<path class="st0" d="M158.77,326.994c-4.116,7.865-7.723,16.314-17.137,19.699c-2.129,0.766-4.064,2.068-6.424,3.299
		c-0.004,4.669,1.849,7.714,5.289,6.829c3.706-0.953,6.263,0.856,9.249,1.998c2.61,0.999,5.289,1.915,8.018,2.476
		c2.806,0.576,6.324-0.215,8.406,1.221c2.405,1.659,4.1,0.318,5.935,0.066c0.535,1.191,0.916,2.041,1.488,3.316
		c1.918-3.767,4.49-5.702,8.477-4.754c0.377,1.079,0.693,1.985,0.997,2.854c3.944-4.443,7.593-8.68,11.387-12.785
		c2.874-3.111,5.133-6.91,9.365-8.587c0.662-0.262,1.131-1.041,1.655-1.614c5.549-6.068,11.108-12.127,16.628-18.221
		c3.775-4.167,7.928-8.081,11.126-12.659c3.839-5.494,6.867-11.559,10.186-17.41c0.561-0.988,0.946-2.118,1.197-3.231
		c1.348-5.96,3.227-11.902-1.108-17.613c-0.97-1.278-0.953-3.33-1.311-5.043c-1.24-5.928-4.43-10.103-10.16-12.539
		c-4.402-1.872-9.039-3.759-12.673-6.737c-5.443-4.461-10.676-8.484-18.214-7.401c-0.364,0.052-0.771-0.102-1.144-0.207
		c-4.18-1.169-8.138-0.359-11.826,1.636c-3.393,1.836-6.668,1.74-10.064,0.2c-1.01-0.457-2.077-0.786-3.107-1.17
		c-1.922,4.653-1.922,4.653-6.98,3.184c0,2.79,0,5.628,0,8.703c1.645,1.876,3.15,4.318,5.3,5.86
		c2.689,1.927,3.777,4.569,4.029,7.383c0.945,10.525,1.216,21.066-3.559,30.933C168.885,306.832,163.997,317.003,158.77,326.994z" style="fill: rgb(0, 0, 0);"></path>
</g>
</svg>
